<svg width="512" height="512" viewBox="0 0 512 512" xmlns="http://www.w3.org/2000/svg">
  <defs>
    <linearGradient id="grad1" x1="0%" y1="0%" x2="100%" y2="100%">
      <stop offset="0%" style="stop-color:#0ea5e9;stop-opacity:1" />
      <stop offset="100%" style="stop-color:#d946ef;stop-opacity:1" />
    </linearGradient>
  </defs>
  
  <!-- Background circle -->
  <circle cx="256" cy="256" r="240" fill="url(#grad1)" stroke="#ffffff" stroke-width="8"/>
  
  <!-- Phone icon -->
  <path d="M160 120c0-22 18-40 40-40h112c22 0 40 18 40 40v272c0 22-18 40-40 40H200c-22 0-40-18-40-40V120z" fill="#ffffff"/>
  <rect x="200" y="80" width="112" height="20" rx="10" fill="#ffffff"/>
  <circle cx="256" cy="280" r="20" fill="#0ea5e9"/>
  <rect x="240" y="320" width="32" height="4" rx="2" fill="#0ea5e9"/>
  
  <!-- Signal waves -->
  <path d="M120 200c0-8 6-14 14-14s14 6 14 14v112c0 8-6 14-14 14s-14-6-14-14V200z" fill="#ffffff" opacity="0.7"/>
  <path d="M100 200c0-8 6-14 14-14s14 6 14 14v112c0 8-6 14-14 14s-14-6-14-14V200z" fill="#ffffff" opacity="0.5"/>
  <path d="M80 200c0-8 6-14 14-14s14 6 14 14v112c0 8-6 14-14 14s-14-6-14-14V200z" fill="#ffffff" opacity="0.3"/>
</svg>
